<svg width="28" height="31" viewBox="0 0 28 31" fill="none" xmlns="http://www.w3.org/2000/svg">
<path d="M15.125 26H14.5625V18.0312C14.5625 14.7242 12.118 11.9914 8.9375 11.5367V10.625C8.9375 10.107 8.51797 9.6875 8 9.6875C7.48203 9.6875 7.0625 10.107 7.0625 10.625V11.5367C3.88203 11.9914 1.4375 14.7242 1.4375 18.0312V26H0.875C0.460156 26 0.125 26.3352 0.125 26.75V27.5C0.125 27.6031 0.209375 27.6875 0.3125 27.6875H5.375C5.375 29.1359 6.55156 30.3125 8 30.3125C9.44844 30.3125 10.625 29.1359 10.625 27.6875H15.6875C15.7906 27.6875 15.875 27.6031 15.875 27.5V26.75C15.875 26.3352 15.5398 26 15.125 26ZM8 28.8125C7.37891 28.8125 6.875 28.3086 6.875 27.6875H9.125C9.125 28.3086 8.62109 28.8125 8 28.8125ZM3.125 26V18.0312C3.125 16.7281 3.63125 15.5047 4.55234 14.5836C5.47344 13.6625 6.69688 13.1562 8 13.1562C9.30313 13.1562 10.5266 13.6625 11.4477 14.5836C12.3687 15.5047 12.875 16.7281 12.875 18.0312V26H3.125Z" fill="white"/>
<rect x="8.5" y="0.5" width="19" height="19" rx="9.5" fill="#F5222D" stroke="white"/>
<path d="M17.9932 15.1641C20.085 15.1641 21.5752 13.9883 21.5752 12.334C21.5752 11.1104 20.7275 10.0986 19.4492 9.79785V9.77051C20.5225 9.42871 21.1719 8.59473 21.1719 7.56934C21.1719 6.06543 19.8389 4.97168 17.9932 4.97168C16.1611 4.97168 14.8076 6.07227 14.8076 7.5625C14.8076 8.60156 15.4707 9.44238 16.5371 9.77051V9.79785C15.2656 10.0918 14.418 11.1035 14.418 12.334C14.418 13.9814 15.9082 15.1641 17.9932 15.1641ZM17.9932 14.0908C16.6396 14.0908 15.6689 13.3184 15.6689 12.2451C15.6689 11.165 16.6396 10.3926 17.9932 10.3926C19.3535 10.3926 20.3174 11.1582 20.3174 12.2451C20.3174 13.3184 19.3535 14.0908 17.9932 14.0908ZM17.9932 9.3125C16.8379 9.3125 16.0312 8.63574 16.0312 7.67871C16.0312 6.71484 16.8379 6.03125 17.9932 6.03125C19.1484 6.03125 19.9551 6.70801 19.9551 7.67871C19.9551 8.63574 19.1416 9.3125 17.9932 9.3125Z" fill="white"/>
</svg>
